<?xml version="1.0" encoding="UTF-8" standalone="no"?>
<!-- Created with Inkscape (http://www.inkscape.org/) -->
<svg xmlns:dc="http://purl.org/dc/elements/1.1/" xmlns:cc="http://creativecommons.org/ns#" xmlns:rdf="http://www.w3.org/1999/02/22-rdf-syntax-ns#" xmlns:svg="http://www.w3.org/2000/svg" xmlns="http://www.w3.org/2000/svg" xmlns:sodipodi="http://sodipodi.sourceforge.net/DTD/sodipodi-0.dtd" xmlns:inkscape="http://www.inkscape.org/namespaces/inkscape" id="svg2" version="1.1" inkscape:version="0.48.5 r10040" width="744.5825" height="305.4" xml:space="preserve" sodipodi:docname="immobiliare-labs.ai"><metadata id="metadata8"><rdf:RDF><cc:Work rdf:about=""><dc:format>image/svg+xml</dc:format><dc:type rdf:resource="http://purl.org/dc/dcmitype/StillImage"/><dc:title/></cc:Work></rdf:RDF></metadata><defs id="defs6"><clipPath clipPathUnits="userSpaceOnUse" id="clipPath16"><path d="m 0,244.32 595.666,0 L 595.666,0 0,0 0,244.32 z" id="path18"/></clipPath></defs><sodipodi:namedview pagecolor="#ffffff" bordercolor="#666666" borderopacity="1" objecttolerance="10" gridtolerance="10" guidetolerance="10" inkscape:pageopacity="0" inkscape:pageshadow="2" inkscape:window-width="1471" inkscape:window-height="932" id="namedview4" showgrid="false" inkscape:zoom="0.47543421" inkscape:cx="372.29126" inkscape:cy="152.7" inkscape:window-x="199" inkscape:window-y="59" inkscape:window-maximized="0" inkscape:current-layer="g10"/><g id="g10" inkscape:groupmode="layer" inkscape:label="immobiliare-labs" transform="matrix(1.25,0,0,-1.25,0,305.4)"><g id="g12"><g id="g14" clip-path="url(#clipPath16)"><g id="g20" transform="translate(255.2886,51.6963)"><path d="M 0,0 C 0,-0.164 -0.013,-0.312 -0.037,-0.437 -0.063,-0.563 -0.101,-0.668 -0.151,-0.749 -0.202,-0.832 -0.265,-0.896 -0.34,-0.94 -0.417,-0.983 -0.499,-1.006 -0.587,-1.006 l -7.313,0 0,-22.071 c 0,-0.076 -0.018,-0.145 -0.057,-0.209 -0.038,-0.063 -0.101,-0.114 -0.189,-0.152 -0.089,-0.036 -0.208,-0.068 -0.36,-0.094 -0.151,-0.024 -0.335,-0.037 -0.55,-0.037 -0.215,0 -0.398,0.013 -0.549,0.037 -0.152,0.026 -0.271,0.058 -0.36,0.094 -0.089,0.038 -0.152,0.089 -0.19,0.152 -0.037,0.064 -0.056,0.133 -0.056,0.209 l 0,22.071 -7.313,0 c -0.102,0 -0.187,0.023 -0.256,0.066 -0.07,0.044 -0.129,0.108 -0.179,0.191 -0.051,0.081 -0.09,0.186 -0.115,0.312 -0.025,0.125 -0.038,0.273 -0.038,0.437 0,0.175 0.013,0.33 0.038,0.463 0.025,0.132 0.064,0.244 0.115,0.331 0.05,0.088 0.109,0.154 0.179,0.2 0.069,0.044 0.154,0.065 0.256,0.065 l 16.937,0 c 0.088,0 0.17,-0.021 0.247,-0.065 0.075,-0.046 0.138,-0.112 0.189,-0.2 0.05,-0.087 0.088,-0.199 0.114,-0.331 C -0.013,0.33 0,0.175 0,0" style="fill:#6e6d6d;fill-opacity:1;fill-rule:nonzero;stroke:none" id="path22"/></g><g id="g24" transform="translate(267.6973,38.7354)"><path d="M 0,0 C 0.038,1.82 -0.379,3.239 -1.25,4.265 -2.122,5.287 -3.392,5.798 -5.059,5.798 -5.917,5.798 -6.672,5.637 -7.323,5.314 -7.973,4.993 -8.523,4.567 -8.971,4.037 -9.419,3.505 -9.764,2.89 -10.003,2.189 -10.243,1.488 -10.383,0.759 -10.42,0 L 0,0 z M 2.33,-0.661 C 2.33,-1.116 2.21,-1.43 1.971,-1.601 1.73,-1.771 1.497,-1.856 1.269,-1.856 l -11.689,0 c 0,-1.06 0.104,-2.021 0.313,-2.879 0.208,-0.86 0.552,-1.596 1.032,-2.208 0.48,-0.612 1.105,-1.084 1.875,-1.411 0.77,-0.329 1.718,-0.493 2.842,-0.493 0.795,0 1.509,0.07 2.141,0.208 0.632,0.14 1.178,0.295 1.639,0.465 0.46,0.171 0.84,0.324 1.137,0.465 0.296,0.138 0.508,0.207 0.635,0.207 0.075,0 0.144,-0.019 0.208,-0.057 C 1.465,-7.597 1.515,-7.656 1.553,-7.738 1.591,-7.821 1.62,-7.927 1.639,-8.051 1.658,-8.178 1.667,-8.334 1.667,-8.524 1.667,-8.613 1.66,-8.698 1.648,-8.78 1.635,-8.862 1.62,-8.939 1.601,-9.008 1.582,-9.076 1.553,-9.144 1.515,-9.206 1.478,-9.271 1.427,-9.333 1.364,-9.397 1.301,-9.459 1.105,-9.57 0.776,-9.728 0.448,-9.887 0.019,-10.044 -0.512,-10.2 c -0.53,-0.16 -1.146,-0.3 -1.846,-0.429 -0.702,-0.125 -1.456,-0.187 -2.265,-0.187 -1.326,0 -2.5,0.198 -3.524,0.596 -1.023,0.397 -1.881,0.984 -2.576,1.761 -0.695,0.777 -1.222,1.74 -1.583,2.89 -0.359,1.148 -0.54,2.481 -0.54,3.998 0,1.452 0.187,2.754 0.559,3.902 0.373,1.149 0.906,2.124 1.601,2.926 0.695,0.803 1.532,1.415 2.51,1.838 0.98,0.423 2.069,0.636 3.269,0.636 1.288,0 2.387,-0.215 3.297,-0.645 C -0.702,6.657 0.047,6.079 0.634,5.354 1.222,4.627 1.652,3.783 1.923,2.823 2.194,1.863 2.33,0.853 2.33,-0.208 l 0,-0.453 z" style="fill:#6e6d6d;fill-opacity:1;fill-rule:nonzero;stroke:none" id="path26"/></g><g id="g28" transform="translate(287.9683,31.1592)"><path d="m 0,0 c 0,-0.152 -0.006,-0.289 -0.019,-0.409 -0.013,-0.12 -0.031,-0.223 -0.057,-0.311 -0.026,-0.091 -0.06,-0.169 -0.104,-0.238 -0.045,-0.069 -0.149,-0.187 -0.312,-0.35 -0.165,-0.165 -0.44,-0.373 -0.824,-0.625 -0.387,-0.253 -0.819,-0.474 -1.298,-0.664 -0.48,-0.189 -0.998,-0.342 -1.554,-0.464 -0.556,-0.12 -1.131,-0.179 -1.724,-0.179 -1.188,0 -2.239,0.198 -3.154,0.596 -0.916,0.397 -1.683,0.984 -2.302,1.761 -0.619,0.778 -1.09,1.731 -1.412,2.861 -0.322,1.129 -0.483,2.435 -0.483,3.913 0,1.667 0.199,3.094 0.597,4.282 0.397,1.186 0.943,2.159 1.639,2.917 0.694,0.758 1.506,1.316 2.435,1.678 0.928,0.359 1.923,0.54 2.983,0.54 0.568,0 1.111,-0.055 1.63,-0.162 0.517,-0.108 0.994,-0.25 1.43,-0.425 0.436,-0.179 0.824,-0.382 1.165,-0.609 0.341,-0.226 0.59,-0.419 0.748,-0.577 0.158,-0.157 0.266,-0.277 0.322,-0.359 0.058,-0.082 0.101,-0.175 0.133,-0.276 0.031,-0.101 0.054,-0.211 0.066,-0.331 0.012,-0.121 0.019,-0.26 0.019,-0.425 0,-0.368 -0.054,-0.623 -0.16,-0.77 -0.108,-0.143 -0.224,-0.217 -0.351,-0.217 -0.178,0 -0.395,0.114 -0.654,0.341 -0.259,0.228 -0.591,0.477 -0.995,0.749 -0.404,0.271 -0.894,0.522 -1.468,0.748 -0.575,0.229 -1.26,0.341 -2.055,0.341 -1.643,0 -2.908,-0.632 -3.799,-1.895 -0.891,-1.262 -1.336,-3.087 -1.336,-5.474 0,-1.199 0.12,-2.252 0.361,-3.155 0.239,-0.903 0.583,-1.655 1.032,-2.254 0.448,-0.6 0.995,-1.048 1.639,-1.346 0.644,-0.296 1.37,-0.445 2.179,-0.445 0.757,0 1.427,0.12 2.008,0.36 0.581,0.241 1.085,0.506 1.515,0.796 0.43,0.29 0.786,0.556 1.071,0.795 0.284,0.241 0.495,0.361 0.634,0.361 0.076,0 0.142,-0.023 0.199,-0.066 0.057,-0.044 0.105,-0.116 0.143,-0.21 0.037,-0.094 0.066,-0.208 0.085,-0.34 C -0.009,0.331 0,0.175 0,0" style="fill:#6e6d6d;fill-opacity:1;fill-rule:nonzero;stroke:none" id="path30"/></g><g id="g32" transform="translate(307.1787,28.6191)"><path d="m 0,0 c 0,-0.076 -0.021,-0.145 -0.058,-0.209 -0.038,-0.062 -0.097,-0.114 -0.179,-0.152 -0.083,-0.035 -0.197,-0.068 -0.342,-0.094 -0.145,-0.024 -0.325,-0.037 -0.54,-0.037 -0.227,0 -0.414,0.013 -0.559,0.037 -0.145,0.026 -0.259,0.059 -0.34,0.094 -0.083,0.038 -0.143,0.09 -0.18,0.152 -0.038,0.064 -0.057,0.133 -0.057,0.209 l 0,10.174 c 0,1.06 -0.082,1.923 -0.246,2.587 -0.165,0.662 -0.411,1.231 -0.739,1.705 -0.329,0.473 -0.748,0.839 -1.261,1.098 -0.511,0.259 -1.108,0.387 -1.79,0.387 -0.871,0 -1.743,-0.309 -2.614,-0.928 -0.872,-0.619 -1.787,-1.528 -2.747,-2.726 l 0,-12.297 c 0,-0.076 -0.02,-0.145 -0.057,-0.209 -0.038,-0.062 -0.098,-0.114 -0.18,-0.152 -0.083,-0.035 -0.196,-0.068 -0.341,-0.094 -0.145,-0.024 -0.332,-0.037 -0.559,-0.037 -0.215,0 -0.395,0.013 -0.54,0.037 -0.145,0.026 -0.263,0.059 -0.351,0.094 -0.088,0.038 -0.148,0.09 -0.178,0.152 -0.033,0.064 -0.048,0.133 -0.048,0.209 l 0,25.538 c 0,0.077 0.015,0.147 0.048,0.209 0.03,0.064 0.09,0.115 0.178,0.16 0.088,0.045 0.206,0.077 0.351,0.095 0.145,0.019 0.325,0.03 0.54,0.03 0.227,0 0.414,-0.011 0.559,-0.03 0.145,-0.018 0.258,-0.05 0.341,-0.095 0.082,-0.045 0.142,-0.096 0.18,-0.16 0.037,-0.062 0.057,-0.132 0.057,-0.209 l 0,-10.704 c 0.934,1.036 1.869,1.797 2.804,2.282 0.934,0.488 1.869,0.732 2.804,0.732 1.124,0 2.071,-0.19 2.841,-0.57 0.77,-0.379 1.393,-0.89 1.867,-1.535 0.473,-0.643 0.815,-1.394 1.023,-2.254 C -0.104,12.63 0,11.595 0,10.383 L 0,0 z" style="fill:#6e6d6d;fill-opacity:1;fill-rule:nonzero;stroke:none" id="path34"/></g><g id="g36" transform="translate(328.1113,28.6191)"><path d="m 0,0 c 0,-0.076 -0.019,-0.145 -0.056,-0.209 -0.039,-0.062 -0.098,-0.114 -0.18,-0.152 -0.082,-0.035 -0.196,-0.068 -0.341,-0.094 -0.146,-0.024 -0.326,-0.037 -0.54,-0.037 -0.229,0 -0.414,0.013 -0.559,0.037 -0.146,0.026 -0.259,0.059 -0.341,0.094 -0.082,0.038 -0.142,0.09 -0.18,0.152 -0.037,0.064 -0.057,0.133 -0.057,0.209 l 0,10.174 c 0,1.06 -0.084,1.923 -0.247,2.587 -0.163,0.662 -0.409,1.231 -0.737,1.705 -0.329,0.473 -0.749,0.839 -1.262,1.098 -0.511,0.259 -1.107,0.387 -1.789,0.387 -0.87,0 -1.743,-0.309 -2.614,-0.928 -0.873,-0.619 -1.789,-1.528 -2.748,-2.726 l 0,-12.297 c 0,-0.076 -0.018,-0.145 -0.057,-0.209 -0.037,-0.062 -0.098,-0.114 -0.18,-0.152 -0.082,-0.035 -0.196,-0.068 -0.341,-0.094 -0.145,-0.024 -0.333,-0.037 -0.558,-0.037 -0.215,0 -0.396,0.013 -0.54,0.037 -0.146,0.026 -0.263,0.059 -0.351,0.094 -0.089,0.038 -0.148,0.09 -0.179,0.152 -0.033,0.064 -0.048,0.133 -0.048,0.209 l 0,17.146 c 0,0.076 0.015,0.144 0.048,0.208 0.031,0.062 0.09,0.117 0.179,0.162 0.088,0.044 0.199,0.075 0.331,0.094 0.133,0.018 0.306,0.028 0.522,0.028 0.215,0 0.39,-0.01 0.53,-0.028 0.139,-0.019 0.247,-0.05 0.322,-0.094 0.077,-0.045 0.129,-0.1 0.16,-0.162 0.032,-0.064 0.048,-0.132 0.048,-0.208 l 0,-2.424 c 0.986,1.097 1.952,1.893 2.899,2.386 0.947,0.492 1.889,0.74 2.823,0.74 1.124,0 2.071,-0.19 2.842,-0.57 0.769,-0.379 1.391,-0.89 1.866,-1.535 C -0.86,15.1 -0.52,14.349 -0.312,13.489 -0.103,12.63 0,11.595 0,10.383 L 0,0 z" style="fill:#6e6d6d;fill-opacity:1;fill-rule:nonzero;stroke:none" id="path38"/></g><g id="g40" transform="translate(347.9277,37.1641)"><path d="m 0,0 c 0,0.972 -0.096,1.899 -0.285,2.783 -0.188,0.885 -0.503,1.666 -0.946,2.342 -0.442,0.675 -1.037,1.213 -1.782,1.608 -0.745,0.4 -1.674,0.598 -2.784,0.598 -1.023,0 -1.906,-0.183 -2.653,-0.55 -0.745,-0.366 -1.354,-0.874 -1.827,-1.523 -0.474,-0.652 -0.826,-1.418 -1.052,-2.303 -0.228,-0.885 -0.342,-1.837 -0.342,-2.86 0,-0.986 0.096,-1.923 0.285,-2.814 0.189,-0.89 0.505,-1.67 0.947,-2.339 0.443,-0.671 1.036,-1.201 1.782,-1.593 0.745,-0.391 1.673,-0.587 2.783,-0.587 1.024,0 1.908,0.184 2.654,0.551 0.743,0.365 1.355,0.87 1.827,1.515 0.475,0.643 0.826,1.407 1.052,2.292 C -0.114,-1.996 0,-1.037 0,0 m 2.388,0.208 c 0,-1.363 -0.177,-2.62 -0.531,-3.77 C 1.502,-4.712 0.976,-5.709 0.274,-6.556 -0.425,-7.402 -1.3,-8.061 -2.35,-8.536 -3.397,-9.01 -4.616,-9.245 -6.005,-9.245 c -1.341,0 -2.511,0.211 -3.515,0.633 -1.003,0.424 -1.844,1.029 -2.52,1.819 -0.676,0.79 -1.181,1.747 -1.515,2.871 -0.335,1.124 -0.503,2.394 -0.503,3.808 0,1.363 0.174,2.621 0.522,3.77 0.347,1.149 0.87,2.144 1.572,2.985 0.702,0.839 1.576,1.494 2.624,1.961 1.049,0.465 2.275,0.701 3.676,0.701 1.339,0 2.51,-0.21 3.513,-0.626 1.005,-0.416 1.841,-1.02 2.51,-1.81 C 1.029,6.078 1.535,5.121 1.877,3.997 2.218,2.872 2.388,1.608 2.388,0.208" style="fill:#6e6d6d;fill-opacity:1;fill-rule:nonzero;stroke:none" id="path42"/></g><g id="g44" transform="translate(358.4043,28.6191)"><path d="m 0,0 c 0,-0.076 -0.02,-0.145 -0.057,-0.209 -0.039,-0.062 -0.098,-0.114 -0.181,-0.152 -0.082,-0.035 -0.196,-0.068 -0.34,-0.094 -0.146,-0.024 -0.332,-0.037 -0.559,-0.037 -0.216,0 -0.394,0.013 -0.54,0.037 -0.146,0.026 -0.262,0.059 -0.349,0.094 -0.09,0.038 -0.151,0.09 -0.182,0.152 -0.031,0.064 -0.047,0.133 -0.047,0.209 l 0,25.538 c 0,0.077 0.016,0.147 0.047,0.209 0.031,0.064 0.092,0.115 0.182,0.16 0.087,0.045 0.203,0.077 0.349,0.095 0.146,0.019 0.324,0.03 0.54,0.03 0.227,0 0.413,-0.011 0.559,-0.03 0.144,-0.018 0.258,-0.05 0.34,-0.095 0.083,-0.045 0.142,-0.096 0.181,-0.16 C -0.02,25.685 0,25.615 0,25.538 L 0,0 z" style="fill:#6e6d6d;fill-opacity:1;fill-rule:nonzero;stroke:none" id="path46"/></g><g id="g48" transform="translate(378.2764,37.1641)"><path d="M 0,0 C 0,0.972 -0.095,1.899 -0.283,2.783 -0.474,3.668 -0.79,4.449 -1.231,5.125 -1.674,5.8 -2.268,6.338 -3.012,6.733 -3.757,7.133 -4.686,7.331 -5.797,7.331 -6.82,7.331 -7.705,7.148 -8.449,6.781 -9.194,6.415 -9.804,5.907 -10.277,5.258 -10.751,4.606 -11.103,3.84 -11.329,2.955 -11.557,2.07 -11.67,1.118 -11.67,0.095 c 0,-0.986 0.095,-1.923 0.285,-2.814 0.189,-0.89 0.503,-1.67 0.947,-2.339 0.442,-0.671 1.035,-1.201 1.78,-1.593 0.745,-0.391 1.674,-0.587 2.785,-0.587 1.022,0 1.907,0.184 2.653,0.551 0.744,0.365 1.354,0.87 1.828,1.515 0.473,0.643 0.824,1.407 1.05,2.292 C -0.113,-1.996 0,-1.037 0,0 m 2.387,0.208 c 0,-1.363 -0.176,-2.62 -0.53,-3.77 -0.353,-1.15 -0.879,-2.147 -1.583,-2.994 -0.7,-0.846 -1.575,-1.505 -2.623,-1.98 -1.048,-0.474 -2.267,-0.709 -3.656,-0.709 -1.339,0 -2.511,0.211 -3.514,0.633 -1.005,0.424 -1.843,1.029 -2.521,1.819 -0.676,0.79 -1.181,1.747 -1.516,2.871 -0.335,1.124 -0.5,2.394 -0.5,3.808 0,1.363 0.172,2.621 0.52,3.77 0.348,1.149 0.873,2.144 1.571,2.985 0.702,0.839 1.577,1.494 2.625,1.961 1.048,0.465 2.274,0.701 3.675,0.701 1.339,0 2.512,-0.21 3.516,-0.626 1.004,-0.416 1.84,-1.02 2.51,-1.81 C 1.029,6.078 1.536,5.121 1.875,3.997 2.217,2.872 2.387,1.608 2.387,0.208" style="fill:#6e6d6d;fill-opacity:1;fill-rule:nonzero;stroke:none" id="path50"/></g><g id="g52" transform="translate(396.0107,40.4229)"><path d="m 0,0 c 0,1.3 -0.358,2.316 -1.071,3.05 -0.714,0.732 -1.728,1.097 -3.042,1.097 -0.669,0 -1.256,-0.114 -1.761,-0.34 C -6.38,3.579 -6.797,3.271 -7.124,2.88 -7.453,2.488 -7.7,2.032 -7.864,1.514 -8.027,0.997 -8.11,0.446 -8.11,-0.134 c 0,-1.263 0.357,-2.258 1.069,-2.983 0.715,-0.726 1.716,-1.089 3.005,-1.089 0.681,0 1.278,0.114 1.79,0.34 0.512,0.228 0.931,0.534 1.26,0.919 0.328,0.384 0.574,0.834 0.738,1.344 C -0.084,-1.09 0,-0.557 0,0 m 1.8,-13.509 c 0,0.833 -0.34,1.472 -1.015,1.913 -0.677,0.443 -1.582,0.683 -2.72,0.72 l -4.981,0.171 c -0.455,-0.354 -0.828,-0.688 -1.118,-1.004 -0.29,-0.315 -0.521,-0.62 -0.691,-0.919 -0.171,-0.296 -0.288,-0.587 -0.351,-0.871 -0.063,-0.284 -0.095,-0.571 -0.095,-0.861 0,-0.936 0.47,-1.643 1.411,-2.122 0.941,-0.481 2.251,-0.72 3.932,-0.72 1.06,0 1.948,0.103 2.661,0.311 0.715,0.208 1.292,0.484 1.733,0.825 0.444,0.34 0.757,0.733 0.949,1.174 0.189,0.442 0.285,0.904 0.285,1.383 M 4.224,4.774 C 4.224,4.42 4.166,4.174 4.054,4.033 3.939,3.896 3.794,3.826 3.617,3.826 l -2.71,0 C 1.438,3.282 1.808,2.692 2.017,2.056 2.226,1.417 2.328,0.745 2.328,0.038 2.328,-0.935 2.174,-1.8 1.864,-2.559 1.556,-3.316 1.116,-3.957 0.548,-4.481 c -0.569,-0.525 -1.243,-0.926 -2.027,-1.203 -0.783,-0.278 -1.649,-0.417 -2.595,-0.417 -0.772,0 -1.504,0.107 -2.199,0.322 -0.695,0.215 -1.237,0.48 -1.628,0.796 -0.254,-0.254 -0.462,-0.544 -0.625,-0.871 -0.165,-0.329 -0.248,-0.708 -0.248,-1.137 0,-0.48 0.231,-0.885 0.692,-1.213 0.461,-0.329 1.059,-0.505 1.791,-0.53 l 4.642,-0.191 c 0.783,-0.025 1.518,-0.132 2.208,-0.321 0.686,-0.19 1.29,-0.472 1.807,-0.843 0.519,-0.373 0.93,-0.832 1.233,-1.374 0.301,-0.543 0.455,-1.181 0.455,-1.913 0,-0.759 -0.156,-1.484 -0.465,-2.179 -0.31,-0.694 -0.789,-1.304 -1.441,-1.829 -0.651,-0.523 -1.48,-0.94 -2.492,-1.25 -1.01,-0.308 -2.216,-0.464 -3.617,-0.464 -1.339,0 -2.478,0.117 -3.419,0.352 -0.941,0.234 -1.712,0.555 -2.312,0.966 -0.6,0.41 -1.037,0.893 -1.307,1.449 -0.272,0.556 -0.408,1.155 -0.408,1.8 0,0.441 0.051,0.858 0.151,1.251 0.101,0.39 0.257,0.762 0.465,1.115 0.209,0.356 0.467,0.695 0.777,1.024 0.31,0.329 0.666,0.663 1.071,1.004 -0.645,0.328 -1.118,0.726 -1.422,1.196 -0.303,0.465 -0.455,0.963 -0.455,1.495 0,0.782 0.152,1.475 0.455,2.074 0.304,0.6 0.669,1.141 1.098,1.62 -0.364,0.48 -0.65,1.005 -0.851,1.573 -0.202,0.568 -0.303,1.25 -0.303,2.045 0,0.96 0.158,1.821 0.472,2.587 0.318,0.764 0.756,1.411 1.319,1.942 0.561,0.53 1.233,0.938 2.017,1.221 0.782,0.284 1.64,0.428 2.577,0.428 0.491,0 0.956,-0.028 1.392,-0.085 0.436,-0.059 0.836,-0.131 1.203,-0.22 l 5.058,0 C 3.83,5.739 3.986,5.657 4.081,5.494 4.177,5.329 4.224,5.09 4.224,4.774" style="fill:#6e6d6d;fill-opacity:1;fill-rule:nonzero;stroke:none" id="path54"/></g><g id="g56" transform="translate(412.1309,28.2402)"><path d="m 0,0 -2.389,-6.422 c -0.061,-0.14 -0.195,-0.255 -0.396,-0.35 -0.203,-0.096 -0.525,-0.143 -0.966,-0.143 -0.228,0 -0.417,0.013 -0.568,0.038 -0.152,0.026 -0.269,0.072 -0.351,0.142 -0.083,0.068 -0.131,0.158 -0.142,0.265 -0.013,0.108 0.011,0.237 0.076,0.388 L -2.312,0 C -2.413,0.039 -2.5,0.101 -2.577,0.19 -2.652,0.277 -2.703,0.366 -2.73,0.455 l -6.232,16.73 c -0.063,0.176 -0.095,0.318 -0.095,0.425 0,0.106 0.036,0.193 0.105,0.256 0.07,0.062 0.182,0.104 0.342,0.123 0.157,0.018 0.369,0.028 0.632,0.028 0.28,0 0.5,-0.01 0.665,-0.028 0.165,-0.019 0.293,-0.048 0.388,-0.085 0.095,-0.038 0.163,-0.089 0.209,-0.153 0.043,-0.063 0.085,-0.138 0.124,-0.226 l 5.362,-14.967 0.074,0 5.266,14.967 c 0.064,0.176 0.148,0.293 0.256,0.35 0.109,0.057 0.251,0.095 0.426,0.114 0.179,0.018 0.393,0.028 0.645,0.028 0.239,0 0.439,-0.012 0.596,-0.038 0.158,-0.025 0.277,-0.07 0.35,-0.132 0.077,-0.064 0.114,-0.148 0.114,-0.257 0,-0.107 -0.031,-0.242 -0.094,-0.405 L 0,0 z" style="fill:#6e6d6d;fill-opacity:1;fill-rule:nonzero;stroke:none" id="path58"/></g><g id="g60" transform="translate(436.7207,48.3994)"><path d="m 0,0 c 0,-0.38 0.05,-0.765 0.151,-1.157 0.101,-0.391 0.255,-0.802 0.464,-1.231 0.208,-0.43 0.469,-0.894 0.786,-1.394 0.316,-0.498 0.689,-1.049 1.119,-1.656 1.023,0.58 1.882,1.112 2.578,1.591 0.692,0.481 1.251,0.946 1.674,1.401 0.423,0.455 0.729,0.907 0.919,1.356 0.19,0.447 0.285,0.931 0.285,1.45 0,0.403 -0.072,0.789 -0.218,1.163 C 7.613,1.896 7.383,2.228 7.066,2.519 6.751,2.808 6.347,3.043 5.853,3.22 5.361,3.396 4.768,3.484 4.073,3.484 3.328,3.484 2.698,3.388 2.188,3.191 1.676,2.994 1.257,2.733 0.928,2.405 0.6,2.076 0.363,1.705 0.218,1.287 0.072,0.87 0,0.441 0,0 m -2.255,-13.548 c 0,-0.72 0.116,-1.375 0.351,-1.97 0.233,-0.593 0.581,-1.107 1.041,-1.544 0.463,-0.435 1.036,-0.773 1.725,-1.014 0.688,-0.238 1.48,-0.36 2.377,-0.36 0.607,0 1.185,0.064 1.734,0.19 0.55,0.127 1.077,0.3 1.581,0.52 0.506,0.222 0.98,0.486 1.422,0.787 0.442,0.303 0.852,0.631 1.231,0.985 -0.708,0.619 -1.405,1.261 -2.093,1.924 -0.689,0.664 -1.355,1.332 -2,2.009 -0.642,0.674 -1.261,1.346 -1.855,2.017 -0.595,0.668 -1.143,1.324 -1.65,1.97 -0.744,-0.468 -1.363,-0.925 -1.856,-1.373 -0.491,-0.448 -0.887,-0.901 -1.185,-1.356 -0.296,-0.455 -0.507,-0.91 -0.633,-1.363 -0.126,-0.454 -0.19,-0.929 -0.19,-1.422 m -2.426,-0.359 c 0,0.681 0.089,1.34 0.266,1.97 0.177,0.632 0.469,1.249 0.871,1.847 0.404,0.599 0.941,1.187 1.611,1.762 0.669,0.575 1.491,1.158 2.462,1.753 -0.529,0.732 -0.982,1.388 -1.352,1.971 -0.374,0.58 -0.678,1.116 -0.91,1.61 -0.234,0.492 -0.402,0.96 -0.502,1.402 -0.103,0.442 -0.152,0.89 -0.152,1.345 0,0.732 0.118,1.438 0.36,2.122 0.239,0.681 0.629,1.289 1.164,1.817 0.538,0.532 1.238,0.958 2.103,1.28 0.866,0.322 1.917,0.483 3.155,0.483 0.984,0 1.847,-0.119 2.585,-0.361 C 7.72,4.855 8.336,4.521 8.828,4.091 9.321,3.661 9.693,3.146 9.946,2.548 c 0.252,-0.601 0.378,-1.261 0.378,-1.98 0,-0.732 -0.116,-1.406 -0.35,-2.018 C 9.74,-2.063 9.358,-2.66 8.828,-3.24 8.297,-3.822 7.606,-4.408 6.754,-5.003 5.9,-5.596 4.856,-6.233 3.618,-6.916 c 0.468,-0.581 0.979,-1.187 1.535,-1.818 0.556,-0.633 1.136,-1.267 1.743,-1.906 0.605,-0.637 1.225,-1.268 1.858,-1.893 0.629,-0.624 1.262,-1.223 1.892,-1.79 0.304,0.39 0.577,0.833 0.816,1.326 0.239,0.492 0.448,1.014 0.625,1.562 0.176,0.549 0.312,1.116 0.407,1.697 0.095,0.579 0.143,1.167 0.143,1.761 l 0,0.739 c 0,0.113 0.015,0.208 0.047,0.285 0.031,0.074 0.085,0.138 0.161,0.189 0.075,0.049 0.186,0.084 0.331,0.104 0.145,0.018 0.333,0.028 0.559,0.028 0.19,0 0.358,-0.004 0.503,-0.01 0.144,-0.006 0.264,-0.028 0.359,-0.065 0.094,-0.039 0.167,-0.103 0.217,-0.189 0.05,-0.089 0.077,-0.216 0.077,-0.379 l 0,-0.379 c 0,-0.759 -0.066,-1.5 -0.2,-2.228 -0.132,-0.725 -0.315,-1.431 -0.548,-2.111 -0.235,-0.683 -0.522,-1.333 -0.863,-1.952 -0.341,-0.618 -0.718,-1.194 -1.137,-1.724 0.645,-0.518 1.204,-0.949 1.677,-1.298 0.475,-0.346 0.881,-0.629 1.223,-0.843 0.34,-0.214 0.617,-0.367 0.833,-0.455 0.215,-0.089 0.391,-0.132 0.53,-0.132 0.126,0 0.243,0.006 0.352,0.018 0.105,0.013 0.194,0.003 0.263,-0.028 0.071,-0.031 0.124,-0.102 0.162,-0.207 0.039,-0.11 0.057,-0.283 0.057,-0.521 0,-0.242 -0.004,-0.437 -0.01,-0.59 -0.006,-0.15 -0.021,-0.264 -0.047,-0.339 -0.027,-0.078 -0.07,-0.14 -0.133,-0.189 -0.064,-0.052 -0.179,-0.096 -0.349,-0.132 -0.173,-0.039 -0.421,-0.058 -0.749,-0.058 -0.24,0 -0.513,0.047 -0.815,0.142 -0.304,0.095 -0.66,0.263 -1.07,0.502 -0.411,0.239 -0.891,0.563 -1.44,0.967 -0.549,0.402 -1.192,0.921 -1.923,1.553 -0.506,-0.455 -1.039,-0.875 -1.601,-1.261 -0.562,-0.385 -1.166,-0.719 -1.81,-1.003 -0.643,-0.284 -1.329,-0.505 -2.056,-0.663 -0.725,-0.158 -1.51,-0.237 -2.358,-0.237 -0.783,0 -1.513,0.069 -2.188,0.208 -0.675,0.139 -1.295,0.34 -1.856,0.606 -0.563,0.266 -1.062,0.591 -1.497,0.977 -0.436,0.384 -0.802,0.817 -1.1,1.297 -0.296,0.48 -0.522,1.009 -0.68,1.59 -0.16,0.582 -0.239,1.202 -0.239,1.858" style="fill:#6e6d6d;fill-opacity:1;fill-rule:nonzero;stroke:none" id="path62"/></g><g id="g64" transform="translate(485.1621,40.7451)"><path d="m 0,0 c 0,1.427 -0.18,2.749 -0.541,3.968 -0.359,1.219 -0.916,2.271 -1.667,3.154 -0.751,0.885 -1.701,1.577 -2.851,2.075 -1.15,0.5 -2.615,0.748 -4.396,0.748 l -3.77,0 0,-20.384 3.79,0 c 1.666,0 3.08,0.204 4.233,0.615 1.157,0.411 2.12,1.045 2.89,1.905 0.771,0.857 1.348,1.941 1.734,3.249 C -0.193,-3.364 0,-1.808 0,0 m 2.481,0.113 c 0,-2.058 -0.258,-3.876 -0.775,-5.447 -0.519,-1.571 -1.284,-2.888 -2.293,-3.951 -1.012,-1.059 -2.258,-1.863 -3.743,-2.403 -1.484,-0.545 -3.255,-0.817 -5.314,-0.817 l -4.831,0 c -0.226,0 -0.462,0.085 -0.7,0.255 -0.24,0.172 -0.36,0.483 -0.36,0.938 l 0,22.13 c 0,0.454 0.12,0.766 0.36,0.936 0.238,0.171 0.474,0.256 0.7,0.256 l 5.153,0 c 2.086,0 3.843,-0.283 5.277,-0.852 C -2.612,10.59 -1.411,9.784 -0.447,8.743 0.521,7.701 1.25,6.449 1.743,4.99 2.233,3.532 2.481,1.907 2.481,0.113" style="fill:#6e6d6d;fill-opacity:1;fill-rule:nonzero;stroke:none" id="path66"/></g><g id="g68" transform="translate(505.1855,38.7354)"><path d="M 0,0 C 0.039,1.82 -0.378,3.239 -1.249,4.265 -2.121,5.287 -3.391,5.798 -5.058,5.798 -5.917,5.798 -6.671,5.637 -7.322,5.314 -7.972,4.993 -8.521,4.567 -8.971,4.037 -9.419,3.505 -9.762,2.89 -10.003,2.189 -10.243,1.488 -10.383,0.759 -10.42,0 L 0,0 z m 2.331,-0.661 c 0,-0.455 -0.119,-0.769 -0.361,-0.94 -0.24,-0.17 -0.472,-0.255 -0.7,-0.255 l -11.69,0 c 0,-1.06 0.105,-2.021 0.314,-2.879 0.208,-0.86 0.552,-1.596 1.032,-2.208 0.48,-0.612 1.105,-1.084 1.876,-1.411 0.769,-0.329 1.717,-0.493 2.842,-0.493 0.795,0 1.508,0.07 2.14,0.208 0.632,0.14 1.178,0.295 1.639,0.465 0.46,0.171 0.84,0.324 1.136,0.465 0.297,0.138 0.508,0.207 0.634,0.207 0.077,0 0.147,-0.019 0.208,-0.057 C 1.467,-7.597 1.517,-7.656 1.554,-7.738 1.593,-7.821 1.62,-7.927 1.64,-8.051 1.658,-8.178 1.667,-8.334 1.667,-8.524 1.667,-8.613 1.662,-8.698 1.648,-8.78 1.636,-8.862 1.62,-8.939 1.601,-9.008 1.583,-9.076 1.554,-9.144 1.517,-9.206 1.478,-9.271 1.428,-9.333 1.366,-9.397 1.302,-9.459 1.105,-9.57 0.778,-9.728 0.449,-9.887 0.019,-10.044 -0.512,-10.2 c -0.529,-0.16 -1.145,-0.3 -1.845,-0.429 -0.702,-0.125 -1.457,-0.187 -2.265,-0.187 -1.326,0 -2.501,0.198 -3.524,0.596 -1.025,0.397 -1.882,0.984 -2.577,1.761 -0.695,0.777 -1.22,1.74 -1.582,2.89 -0.359,1.148 -0.54,2.481 -0.54,3.998 0,1.452 0.187,2.754 0.56,3.902 0.372,1.149 0.905,2.124 1.6,2.926 0.695,0.803 1.533,1.415 2.51,1.838 0.979,0.423 2.07,0.636 3.269,0.636 1.287,0 2.387,-0.215 3.297,-0.645 C -0.7,6.657 0.048,6.079 0.636,5.354 1.222,4.627 1.652,3.783 1.923,2.823 2.194,1.863 2.331,0.853 2.331,-0.208 l 0,-0.453 z" style="fill:#6e6d6d;fill-opacity:1;fill-rule:nonzero;stroke:none" id="path70"/></g><g id="g72" transform="translate(523.5625,33.1846)"><path d="m 0,0 c 0,-0.819 -0.15,-1.557 -0.455,-2.206 -0.301,-0.651 -0.733,-1.203 -1.297,-1.658 -0.561,-0.455 -1.234,-0.803 -2.018,-1.041 -0.782,-0.242 -1.648,-0.361 -2.595,-0.361 -0.594,0 -1.156,0.047 -1.687,0.143 -0.53,0.093 -1.01,0.214 -1.44,0.358 -0.429,0.147 -0.79,0.3 -1.087,0.464 -0.297,0.164 -0.516,0.311 -0.653,0.437 -0.141,0.127 -0.243,0.284 -0.304,0.473 -0.065,0.191 -0.095,0.443 -0.095,0.758 0,0.164 0.012,0.31 0.037,0.436 0.026,0.126 0.058,0.234 0.095,0.322 0.038,0.087 0.089,0.154 0.15,0.198 0.065,0.046 0.134,0.068 0.209,0.068 0.14,0 0.342,-0.089 0.607,-0.266 0.265,-0.177 0.597,-0.37 0.995,-0.577 0.397,-0.209 0.871,-0.402 1.421,-0.579 0.55,-0.178 1.183,-0.265 1.904,-0.265 0.58,0 1.111,0.064 1.591,0.191 0.479,0.126 0.896,0.313 1.25,0.568 0.353,0.253 0.629,0.577 0.825,0.975 0.196,0.397 0.293,0.861 0.293,1.392 0,0.531 -0.127,0.98 -0.38,1.347 -0.251,0.364 -0.582,0.684 -0.993,0.955 -0.412,0.272 -0.878,0.512 -1.4,0.72 -0.526,0.209 -1.064,0.423 -1.612,0.644 -0.55,0.221 -1.088,0.464 -1.611,0.731 -0.523,0.264 -0.99,0.585 -1.402,0.964 -0.41,0.38 -0.743,0.834 -0.994,1.365 -0.253,0.531 -0.379,1.168 -0.379,1.913 0,0.594 0.114,1.177 0.34,1.753 0.229,0.574 0.578,1.089 1.052,1.544 0.474,0.455 1.08,0.821 1.82,1.098 0.738,0.278 1.612,0.418 2.624,0.418 0.427,0 0.853,-0.036 1.278,-0.105 0.423,-0.07 0.808,-0.161 1.155,-0.275 0.347,-0.113 0.648,-0.236 0.9,-0.368 0.252,-0.134 0.445,-0.251 0.58,-0.352 0.131,-0.101 0.22,-0.186 0.264,-0.255 0.043,-0.072 0.075,-0.142 0.094,-0.218 0.02,-0.076 0.036,-0.167 0.047,-0.276 0.012,-0.105 0.02,-0.235 0.02,-0.388 0,-0.15 -0.009,-0.286 -0.03,-0.406 -0.017,-0.122 -0.047,-0.224 -0.084,-0.313 -0.039,-0.089 -0.085,-0.156 -0.142,-0.2 -0.058,-0.043 -0.123,-0.066 -0.2,-0.066 -0.1,0 -0.253,0.07 -0.455,0.209 -0.2,0.139 -0.467,0.29 -0.795,0.455 -0.328,0.165 -0.719,0.314 -1.173,0.454 -0.456,0.138 -0.981,0.208 -1.575,0.208 -0.591,0 -1.113,-0.07 -1.561,-0.208 -0.448,-0.14 -0.819,-0.335 -1.109,-0.587 C -8.266,10.339 -8.483,10.041 -8.628,9.7 -8.773,9.359 -8.846,8.987 -8.846,8.583 c 0,-0.556 0.126,-1.022 0.377,-1.402 0.252,-0.379 0.588,-0.708 1.005,-0.985 0.416,-0.278 0.891,-0.525 1.421,-0.74 0.531,-0.214 1.07,-0.428 1.62,-0.644 0.549,-0.214 1.089,-0.451 1.619,-0.709 0.532,-0.26 1.005,-0.572 1.421,-0.939 C -0.965,2.799 -0.63,2.359 -0.378,1.849 -0.127,1.336 0,0.722 0,0" style="fill:#6e6d6d;fill-opacity:1;fill-rule:nonzero;stroke:none" id="path74"/></g><g id="g76" transform="translate(531.5205,28.6191)"><path d="m 0,0 c 0,-0.076 -0.021,-0.145 -0.058,-0.209 -0.037,-0.062 -0.097,-0.114 -0.18,-0.152 -0.082,-0.035 -0.196,-0.068 -0.341,-0.094 -0.146,-0.024 -0.331,-0.037 -0.558,-0.037 -0.217,0 -0.395,0.013 -0.541,0.037 -0.144,0.026 -0.262,0.059 -0.35,0.094 -0.089,0.038 -0.149,0.09 -0.18,0.152 -0.033,0.064 -0.047,0.133 -0.047,0.209 l 0,17.146 c 0,0.076 0.014,0.144 0.047,0.208 0.031,0.062 0.091,0.117 0.18,0.162 0.088,0.044 0.206,0.075 0.35,0.094 0.146,0.018 0.324,0.028 0.541,0.028 0.227,0 0.412,-0.01 0.558,-0.028 0.145,-0.019 0.259,-0.05 0.341,-0.094 0.083,-0.045 0.143,-0.1 0.18,-0.162 C -0.021,17.29 0,17.222 0,17.146 L 0,0 z m 0.34,22.924 c 0,-0.606 -0.108,-1.017 -0.323,-1.231 -0.214,-0.215 -0.606,-0.323 -1.175,-0.323 -0.555,0 -0.937,0.106 -1.145,0.314 -0.208,0.208 -0.313,0.615 -0.313,1.221 0,0.606 0.108,1.017 0.322,1.231 0.216,0.216 0.607,0.322 1.175,0.322 0.556,0 0.937,-0.105 1.145,-0.312 C 0.235,23.937 0.34,23.53 0.34,22.924" style="fill:#6e6d6d;fill-opacity:1;fill-rule:nonzero;stroke:none" id="path78"/></g><g id="g80" transform="translate(548.1152,40.4229)"><path d="m 0,0 c 0,1.3 -0.357,2.316 -1.072,3.05 -0.712,0.732 -1.727,1.097 -3.04,1.097 -0.669,0 -1.257,-0.114 -1.762,-0.34 C -6.378,3.579 -6.795,3.271 -7.124,2.88 -7.453,2.488 -7.699,2.032 -7.863,1.514 -8.027,0.997 -8.109,0.446 -8.109,-0.134 c 0,-1.263 0.356,-2.258 1.07,-2.983 0.714,-0.726 1.715,-1.089 3.003,-1.089 0.682,0 1.279,0.114 1.79,0.34 0.513,0.228 0.932,0.534 1.261,0.919 0.329,0.384 0.575,0.834 0.738,1.344 C -0.084,-1.09 0,-0.557 0,0 m 1.799,-13.509 c 0,0.833 -0.338,1.472 -1.015,1.913 -0.674,0.443 -1.579,0.683 -2.717,0.72 l -4.983,0.171 c -0.453,-0.354 -0.826,-0.688 -1.117,-1.004 -0.291,-0.315 -0.522,-0.62 -0.692,-0.919 -0.17,-0.296 -0.287,-0.587 -0.351,-0.871 -0.063,-0.284 -0.094,-0.571 -0.094,-0.861 0,-0.936 0.47,-1.643 1.412,-2.122 0.94,-0.481 2.251,-0.72 3.931,-0.72 1.059,0 1.948,0.103 2.661,0.311 0.714,0.208 1.291,0.484 1.732,0.825 0.444,0.34 0.759,0.733 0.949,1.174 0.188,0.442 0.284,0.904 0.284,1.383 M 4.225,4.774 C 4.225,4.42 4.167,4.174 4.054,4.033 3.94,3.896 3.794,3.826 3.617,3.826 l -2.709,0 C 1.438,3.282 1.809,2.692 2.018,2.056 2.225,1.417 2.33,0.745 2.33,0.038 2.33,-0.935 2.176,-1.8 1.865,-2.559 1.557,-3.316 1.117,-3.957 0.55,-4.481 c -0.57,-0.525 -1.244,-0.926 -2.028,-1.203 -0.784,-0.278 -1.648,-0.417 -2.596,-0.417 -0.771,0 -1.503,0.107 -2.197,0.322 -0.695,0.215 -1.239,0.48 -1.629,0.796 -0.253,-0.254 -0.461,-0.544 -0.626,-0.871 -0.164,-0.329 -0.247,-0.708 -0.247,-1.137 0,-0.48 0.231,-0.885 0.693,-1.213 0.46,-0.329 1.058,-0.505 1.789,-0.53 l 4.643,-0.191 c 0.782,-0.025 1.517,-0.132 2.207,-0.321 0.687,-0.19 1.292,-0.472 1.808,-0.843 0.52,-0.373 0.928,-0.832 1.232,-1.374 0.303,-0.543 0.455,-1.181 0.455,-1.913 0,-0.759 -0.156,-1.484 -0.464,-2.179 -0.309,-0.694 -0.789,-1.304 -1.44,-1.829 -0.651,-0.523 -1.48,-0.94 -2.492,-1.25 -1.01,-0.308 -2.217,-0.464 -3.617,-0.464 -1.339,0 -2.48,0.117 -3.42,0.352 -0.942,0.234 -1.712,0.555 -2.313,0.966 -0.599,0.41 -1.035,0.893 -1.307,1.449 -0.271,0.556 -0.407,1.155 -0.407,1.8 0,0.441 0.051,0.858 0.151,1.251 0.101,0.39 0.256,0.762 0.465,1.115 0.209,0.356 0.468,0.695 0.777,1.024 0.309,0.329 0.666,0.663 1.07,1.004 -0.643,0.328 -1.117,0.726 -1.42,1.196 -0.303,0.465 -0.455,0.963 -0.455,1.495 0,0.782 0.152,1.475 0.455,2.074 0.303,0.6 0.668,1.141 1.098,1.62 -0.366,0.48 -0.651,1.005 -0.853,1.573 -0.201,0.568 -0.303,1.25 -0.303,2.045 0,0.96 0.158,1.821 0.474,2.587 0.316,0.764 0.756,1.411 1.317,1.942 0.563,0.53 1.234,0.938 2.017,1.221 0.784,0.284 1.642,0.428 2.577,0.428 0.493,0 0.958,-0.028 1.391,-0.085 0.438,-0.059 0.838,-0.131 1.205,-0.22 l 5.057,0 c 0.215,0 0.37,-0.082 0.464,-0.245 C 4.178,5.329 4.225,5.09 4.225,4.774" style="fill:#6e6d6d;fill-opacity:1;fill-rule:nonzero;stroke:none" id="path82"/></g><g id="g84" transform="translate(571.4727,28.6191)"><path d="m 0,0 c 0,-0.076 -0.019,-0.145 -0.056,-0.209 -0.039,-0.062 -0.098,-0.114 -0.181,-0.152 -0.081,-0.035 -0.197,-0.068 -0.34,-0.094 -0.146,-0.024 -0.325,-0.037 -0.54,-0.037 -0.228,0 -0.415,0.013 -0.559,0.037 -0.146,0.026 -0.26,0.059 -0.341,0.094 -0.083,0.038 -0.143,0.09 -0.181,0.152 -0.037,0.064 -0.057,0.133 -0.057,0.209 l 0,10.174 c 0,1.06 -0.08,1.923 -0.244,2.587 -0.165,0.662 -0.412,1.231 -0.741,1.705 -0.327,0.473 -0.748,0.839 -1.259,1.098 -0.511,0.259 -1.107,0.387 -1.791,0.387 -0.873,0 -1.742,-0.309 -2.613,-0.928 -0.872,-0.619 -1.787,-1.528 -2.748,-2.726 l 0,-12.297 c 0,-0.076 -0.019,-0.145 -0.057,-0.209 -0.038,-0.062 -0.097,-0.114 -0.18,-0.152 -0.082,-0.035 -0.196,-0.068 -0.34,-0.094 -0.146,-0.024 -0.332,-0.037 -0.56,-0.037 -0.215,0 -0.396,0.013 -0.539,0.037 -0.147,0.026 -0.264,0.059 -0.352,0.094 -0.087,0.038 -0.148,0.09 -0.178,0.152 -0.034,0.064 -0.048,0.133 -0.048,0.209 l 0,17.146 c 0,0.076 0.014,0.144 0.048,0.208 0.03,0.062 0.091,0.117 0.178,0.162 0.088,0.044 0.2,0.075 0.332,0.094 0.132,0.018 0.306,0.028 0.521,0.028 0.215,0 0.392,-0.01 0.531,-0.028 0.139,-0.019 0.246,-0.05 0.321,-0.094 0.076,-0.045 0.131,-0.1 0.162,-0.162 0.032,-0.064 0.047,-0.132 0.047,-0.208 l 0,-2.424 c 0.986,1.097 1.952,1.893 2.9,2.386 0.947,0.492 1.886,0.74 2.822,0.74 1.124,0 2.071,-0.19 2.841,-0.57 0.77,-0.379 1.393,-0.89 1.867,-1.535 0.473,-0.643 0.814,-1.394 1.023,-2.254 C -0.104,12.63 0,11.595 0,10.383 L 0,0 z" style="fill:#6e6d6d;fill-opacity:1;fill-rule:nonzero;stroke:none" id="path86"/></g><g id="g88" transform="translate(289.3721,95.4395)"><path d="m 0,0 c -1.521,1.882 -3.435,2.786 -5.748,2.714 -2.388,0.072 -4.34,-0.832 -5.86,-2.714 -1.446,-1.734 -2.17,-3.795 -2.17,-6.181 0,-2.46 0.724,-4.557 2.17,-6.291 1.52,-1.809 3.472,-2.75 5.86,-2.823 2.313,0.073 4.227,1.014 5.748,2.823 1.448,1.734 2.206,3.831 2.278,6.291 C 2.206,-3.795 1.448,-1.734 0,0 m 46.535,-14.861 c 2.531,0 4.558,0.868 6.078,2.606 1.371,1.662 2.059,3.795 2.059,6.398 0,2.458 -0.759,4.556 -2.279,6.291 C 50.804,2.173 48.815,3.005 46.425,2.93 43.896,3.005 41.91,2.173 40.461,0.434 39.015,-1.229 38.33,-3.363 38.4,-5.964 c -0.07,-2.605 0.615,-4.737 2.061,-6.402 1.449,-1.662 3.474,-2.495 6.074,-2.495 m 88.626,28.748 c 0.867,0 2.169,0.071 3.905,0.214 1.735,0.146 3.038,0.219 3.903,0.219 0.726,0 1.085,-0.291 1.085,-0.867 0,-0.07 -0.033,-0.363 -0.108,-0.868 -0.651,-5.786 -0.977,-12.512 -0.977,-20.177 0,-2.243 0.073,-5.569 0.222,-9.979 0.071,-4.268 0.104,-7.486 0.104,-9.657 0,-0.579 -0.397,-0.936 -1.191,-1.083 -1.011,-0.145 -3.291,-0.216 -6.833,-0.216 -3.621,0 -5.934,0.071 -6.947,0.216 -0.646,0.147 -1.044,0.325 -1.19,0.542 -0.07,0.145 -0.109,0.618 -0.109,1.411 0,2.026 0.072,5.098 0.217,9.22 0.071,4.268 0.109,7.45 0.109,9.546 -0.071,8.461 -0.433,15.187 -1.085,20.177 -0.07,0.505 -0.07,0.798 0,0.868 -0.07,0.648 0.289,0.975 1.085,0.975 0.869,0.073 2.17,0 3.907,-0.216 1.731,-0.144 3.033,-0.254 3.903,-0.325 m -34.172,19.85 c 0.074,0.724 0.509,1.087 1.302,1.087 l 15.949,0 c 0.792,-0.074 1.158,-0.435 1.087,-1.087 l 0,-0.758 c -0.872,-12.875 -1.306,-24.302 -1.306,-34.28 0,-8.098 0.039,-14.354 0.11,-18.764 0,-0.724 0.034,-1.916 0.109,-3.581 0.073,-1.52 0.144,-2.712 0.215,-3.582 -0.071,-0.579 -0.47,-0.936 -1.192,-1.083 -1.373,-0.216 -3.76,-0.326 -7.159,-0.326 -3.691,0 -6.041,0.11 -7.051,0.326 -0.653,0.147 -1.012,0.542 -1.083,1.195 l 0,1.95 c 0,2.675 0.033,6.654 0.104,11.931 0.073,5.353 0.145,9.331 0.217,11.934 l 0,17.247 c -0.072,6.583 -0.434,12.258 -1.085,17.033 -0.071,0.36 -0.143,0.614 -0.217,0.758 M 77.451,14.428 c 0.87,0.073 2.205,0 4.013,-0.216 1.667,-0.144 2.929,-0.254 3.797,-0.325 0.798,0 2.064,0.071 3.798,0.214 1.807,0.146 3.147,0.219 4.012,0.219 0.725,0 1.082,-0.291 1.082,-0.867 l 0,-0.868 C 93.436,6.799 93.071,0.073 93.071,-7.592 c 0,-2.243 0.038,-5.569 0.111,-9.979 0.071,-4.268 0.141,-7.486 0.215,-9.657 0,-0.579 -0.399,-0.936 -1.191,-1.083 -1.014,-0.145 -3.29,-0.216 -6.836,-0.216 -3.617,0 -5.93,0.071 -6.945,0.216 -0.646,0.147 -1.045,0.325 -1.189,0.542 -0.072,0.145 -0.111,0.618 -0.111,1.411 0,2.026 0.039,5.098 0.111,9.22 0.072,4.268 0.144,7.45 0.215,9.546 -0.071,8.461 -0.43,15.187 -1.083,20.177 -0.073,0.505 -0.111,0.798 -0.111,0.868 0,0.648 0.399,0.975 1.194,0.975 M 30.589,35.796 c 3.185,0.29 5.786,0.437 7.811,0.437 0.505,0 0.798,-0.469 0.871,-1.409 -0.073,-1.159 -0.149,-2.751 -0.219,-4.777 -0.218,-2.314 -0.326,-3.83 -0.326,-4.555 C 38.507,22.601 38.4,18.55 38.4,13.345 c 0,-0.871 0.256,-1.34 0.759,-1.41 0.29,0 0.579,0.107 0.869,0.325 2.601,2.892 6.111,4.337 10.521,4.337 6.509,0 11.604,-2.241 15.296,-6.725 3.399,-4.05 5.099,-9.476 5.099,-16.268 0,-6.223 -1.771,-11.464 -5.315,-15.732 -3.906,-4.484 -8.932,-6.727 -15.08,-6.727 -4.484,0 -8.096,1.267 -10.848,3.798 -0.218,0.288 -0.398,0.435 -0.542,0.435 -0.287,0 -0.542,-0.58 -0.759,-1.736 -0.29,-1.156 -0.614,-1.772 -0.975,-1.844 -0.508,-0.146 -4.775,-0.254 -12.798,-0.325 -1.882,0.071 -2.824,0.469 -2.824,1.192 0,0.07 0.039,0.291 0.11,0.649 0.576,4.775 0.866,13.816 0.866,27.12 0,12.801 -0.433,23.902 -1.302,33.303 L 21.37,34.28 c 0,0.504 0.472,0.759 1.409,0.759 0.65,0.071 3.256,0.325 7.81,0.757 M 10.63,10.307 c 4.195,-4.197 6.291,-9.692 6.291,-16.488 0,-6.87 -2.059,-12.402 -6.183,-16.596 -4.265,-4.267 -9.799,-6.438 -16.596,-6.509 -6.581,0 -12.006,2.135 -16.271,6.398 -4.268,4.195 -6.366,9.547 -6.293,16.055 0,7.014 2.025,12.655 6.075,16.923 4.053,4.338 9.548,6.507 16.489,6.507 6.797,0.072 12.295,-2.025 16.488,-6.29 m -105.655,4.988 c 1.445,0.434 2.641,0.651 3.581,0.651 0.503,0 0.794,-1.047 0.866,-3.146 0,-2.096 0.108,-3.143 0.324,-3.143 0.29,0.143 0.653,0.36 1.085,0.65 2.678,2.095 4.809,3.506 6.403,4.232 2.241,1.155 4.735,1.732 7.484,1.732 2.675,0 5.135,-0.615 7.376,-1.843 2.386,-1.373 3.976,-3.327 4.772,-5.856 1.521,2.169 3.69,4.013 6.508,5.529 2.75,1.451 5.462,2.17 8.136,2.17 3.907,0 7.089,-0.939 9.546,-2.818 2.822,-2.025 4.232,-4.953 4.232,-8.787 0,-1.518 -0.037,-3.906 -0.109,-7.159 -0.072,-3.185 -0.111,-5.568 -0.111,-7.159 0,-1.881 0.039,-4.702 0.111,-8.465 0.072,-3.759 0.109,-6.577 0.109,-8.458 0,-1.085 -0.435,-1.701 -1.304,-1.845 -0.939,-0.074 -3.144,-0.107 -6.614,-0.107 -3.691,0 -5.966,0.071 -6.835,0.216 -0.939,0.147 -1.374,0.867 -1.301,2.168 0,1.374 0.035,3.437 0.105,6.185 0.076,2.748 0.146,4.773 0.22,6.072 -0.074,5.353 -0.181,9.15 -0.325,11.393 -0.145,3.543 -1.809,5.279 -4.991,5.207 -1.447,0 -2.892,-0.615 -4.339,-1.845 -1.374,-1.086 -2.097,-2.387 -2.172,-3.906 -0.143,-1.228 -0.214,-4.881 -0.214,-10.956 0,-1.373 0.071,-3.509 0.214,-6.398 l 0,-6.509 c 0,-0.941 -0.397,-1.411 -1.19,-1.411 l -13.667,0 c -0.799,0 -1.159,0.617 -1.087,1.844 -0.072,1.444 -0.072,3.579 0,6.402 0.073,2.749 0.109,4.805 0.109,6.179 -0.072,1.158 -0.109,2.858 -0.109,5.1 -0.072,2.243 -0.072,3.906 0,4.991 0,4.34 -1.626,6.509 -4.881,6.509 -1.372,0.072 -2.822,-0.435 -4.339,-1.52 -1.664,-1.085 -2.495,-2.241 -2.495,-3.471 l 0,-12.258 0,-12.04 c 0,-0.726 -0.073,-1.232 -0.217,-1.519 -0.216,-0.145 -0.652,-0.254 -1.3,-0.326 -1.447,-0.074 -3.617,-0.107 -6.51,-0.107 -1.881,0 -4.013,0.071 -6.401,0.216 -0.722,0.072 -1.157,0.181 -1.302,0.325 -0.143,0.217 -0.179,0.685 -0.107,1.411 l 0,10.63 0,10.74 c 0,4.988 -0.325,10.557 -0.976,16.706 -0.073,0.358 -0.109,0.614 -0.109,0.759 -0.072,0.506 0.109,0.83 0.542,0.975 0.65,0.291 1.917,0.506 3.797,0.652 2.169,0.214 3.472,0.36 3.905,0.433 0.29,0.072 1.482,0.395 3.58,0.975 m -91.336,-2.06 c 0.577,0.291 1.808,0.506 3.686,0.652 2.17,0.214 3.471,0.36 3.907,0.433 0.36,0.072 1.59,0.395 3.687,0.975 1.374,0.434 2.532,0.651 3.47,0.651 0.509,0 0.797,-1.047 0.869,-3.146 0.072,-2.096 0.217,-3.143 0.434,-3.143 0.29,0.143 0.651,0.36 1.085,0.65 2.604,2.095 4.701,3.506 6.29,4.232 2.316,1.155 4.809,1.732 7.488,1.732 2.745,0 5.206,-0.615 7.375,-1.843 2.387,-1.373 3.977,-3.327 4.774,-5.856 1.516,2.169 3.686,4.013 6.507,5.529 2.749,1.451 5.461,2.17 8.137,2.17 3.903,0 7.122,-0.939 9.652,-2.818 2.823,-2.025 4.234,-4.953 4.234,-8.787 0,-1.518 -0.04,-3.906 -0.111,-7.159 -0.144,-3.185 -0.217,-5.568 -0.217,-7.159 0,-1.881 0.073,-4.702 0.217,-8.465 0.071,-3.759 0.111,-6.577 0.111,-8.458 0,-1.085 -0.438,-1.701 -1.304,-1.845 -0.939,-0.074 -3.182,-0.107 -6.726,-0.107 -3.686,0 -5.966,0.071 -6.833,0.216 -0.867,0.147 -1.303,0.867 -1.303,2.168 0,1.374 0.039,3.437 0.11,6.185 0.072,2.748 0.108,4.773 0.108,6.072 0,5.353 -0.036,9.15 -0.108,11.393 -0.218,3.543 -1.915,5.279 -5.098,5.207 -1.374,0 -2.75,-0.615 -4.122,-1.845 -1.447,-1.086 -2.243,-2.387 -2.386,-3.906 -0.147,-1.228 -0.182,-4.881 -0.111,-10.956 0,-1.373 0.039,-3.509 0.111,-6.398 l 0,-6.509 c 0,-0.941 -0.399,-1.411 -1.195,-1.411 l -13.561,0 c -0.867,0 -1.299,0.617 -1.299,1.844 0,1.444 0.036,3.579 0.108,6.402 0.072,2.749 0.107,4.805 0.107,6.179 0,1.158 -0.035,2.858 -0.107,5.1 l 0,4.991 c 0,4.34 -1.627,6.509 -4.881,6.509 -1.375,0.072 -2.821,-0.435 -4.34,-1.52 -1.664,-1.085 -2.494,-2.241 -2.494,-3.471 -0.072,-2.749 -0.072,-6.834 0,-12.258 l 0,-12.04 c 0,-0.726 -0.037,-1.232 -0.11,-1.519 -0.215,-0.145 -0.722,-0.254 -1.517,-0.326 -1.303,-0.074 -3.399,-0.107 -6.292,-0.107 -1.881,0 -4.013,0.071 -6.401,0.216 -0.721,0.072 -1.12,0.181 -1.193,0.325 -0.215,0.217 -0.326,0.685 -0.326,1.411 l 0,10.63 0,10.74 c 0,4.988 -0.326,10.557 -0.974,16.706 -0.072,0.358 -0.11,0.614 -0.11,0.759 -0.073,0.506 0.144,0.83 0.652,0.975 M 179.962,0.109 c -1.667,1.737 -3.764,2.605 -6.292,2.605 -2.603,0 -4.7,-0.832 -6.293,-2.496 -1.588,-1.59 -2.387,-3.689 -2.387,-6.293 0.074,-2.458 0.943,-4.553 2.608,-6.291 1.66,-1.733 3.688,-2.603 6.072,-2.603 2.528,0 4.594,0.833 6.183,2.497 1.665,1.661 2.496,3.797 2.496,6.397 0,2.533 -0.798,4.594 -2.387,6.184 m 86.455,-1.302 c 0,1.881 -0.65,3.472 -1.953,4.774 -1.302,1.447 -2.858,2.168 -4.664,2.168 -1.952,0.073 -3.545,-0.686 -4.774,-2.277 -1.156,-1.448 -1.732,-3.181 -1.732,-5.206 0,-0.796 0.43,-1.23 1.299,-1.303 2.169,0.073 5.603,0.473 10.306,1.193 1.012,0.145 1.518,0.363 1.518,0.651 m 9.764,12.258 c 3.976,-4.193 5.967,-9.183 5.967,-14.969 0,-3.037 -0.978,-4.771 -2.93,-5.207 -0.288,-0.071 -3.366,-0.399 -9.221,-0.975 -3.542,-0.436 -8.822,-0.905 -15.839,-1.412 0.363,-1.95 1.592,-3.435 3.69,-4.447 1.805,-0.867 3.831,-1.3 6.074,-1.3 2.603,0 5.244,0.723 7.919,2.169 1.085,0.795 2.24,1.52 3.47,2.17 0.579,-0.291 1.626,-1.81 3.149,-4.559 1.446,-2.748 2.169,-4.483 2.169,-5.205 0,-0.218 -0.216,-0.579 -0.654,-1.086 -3.613,-3.904 -9.29,-5.857 -17.029,-5.857 -7.162,0 -12.907,2.099 -17.246,6.293 -4.486,4.193 -6.69,9.799 -6.62,16.813 -0.07,6.941 1.916,12.583 5.968,16.923 4.123,4.556 9.58,6.832 16.383,6.832 5.783,0.074 10.698,-1.989 14.75,-6.183 m -71.054,2.605 c 1.665,0.143 4.084,0.431 7.269,0.869 4.702,1.013 7.123,1.481 7.27,1.407 0.575,0.074 0.937,-0.865 1.085,-2.818 0.144,-1.666 0.395,-2.605 0.758,-2.821 -0.144,0.146 1.086,0.938 3.686,2.386 2.894,1.591 5.68,2.388 8.353,2.388 1.665,0 2.495,-0.399 2.495,-1.194 0,-0.797 -0.072,-1.989 -0.216,-3.58 C 235.609,8.644 235.5,7.416 235.5,6.62 l 0,-3.366 c 0.071,-1.808 0.109,-3 0.109,-3.578 0,-1.157 -0.65,-1.735 -1.953,-1.735 l -2.383,0 c -1.158,0.145 -2.028,0.215 -2.606,0.215 -2.459,0 -4.158,-0.399 -5.098,-1.193 -0.87,-0.722 -1.268,-2.313 -1.191,-4.774 -0.077,-1.225 -0.077,-3.18 0,-5.856 0,-2.603 0.033,-4.555 0.105,-5.855 0,-0.798 0.073,-2.062 0.216,-3.798 0.072,-1.737 0.109,-3.038 0.109,-3.908 0,-0.65 -0.468,-1.048 -1.409,-1.192 -1.445,-0.074 -3.654,-0.107 -6.616,-0.107 -2.892,0 -5.174,0.071 -6.835,0.216 -1.012,0.147 -1.481,0.617 -1.41,1.411 -0.071,2.461 -0.071,6.037 0,10.739 l 0,10.846 c -0.071,7.015 -0.725,12.836 -1.953,17.467 -0.071,0.216 -0.106,0.395 -0.106,0.541 0,0.506 0.217,0.833 0.648,0.977 m -20.173,1.842 c 1.083,0 3.215,-0.36 6.399,-1.084 2.893,-0.505 4.99,-1.014 6.291,-1.517 0.505,-0.145 0.759,-0.364 0.759,-0.651 -0.073,-0.072 -0.145,-0.362 -0.216,-0.871 -0.942,-5.423 -1.411,-11.171 -1.411,-17.246 0,-2.312 0.144,-5.747 0.431,-10.304 0.294,-4.557 0.437,-7.955 0.437,-10.197 0,-1.156 -0.541,-1.806 -1.628,-1.953 -3.762,-0.289 -7.992,-0.432 -12.69,-0.432 -0.652,0.07 -1.082,0.936 -1.305,2.6 -0.216,1.738 -0.432,2.64 -0.649,2.712 -0.216,-0.144 -0.509,-0.431 -0.868,-0.865 -3.398,-3.328 -7.019,-4.99 -10.848,-4.99 -5.855,0 -10.701,2.277 -14.532,6.833 -3.622,4.336 -5.391,9.511 -5.318,15.512 0,6.871 1.881,12.401 5.637,16.598 3.836,4.411 9.151,6.614 15.952,6.614 4.7,0 8.386,-1.627 11.063,-4.882 0.143,-0.216 0.288,-0.324 0.432,-0.324 0.214,0 0.471,0.723 0.756,2.17 0.367,1.52 0.798,2.277 1.308,2.277" style="fill:#38729a;fill-opacity:1;fill-rule:evenodd;stroke:none" id="path90"/></g><g id="g92" transform="translate(381.3584,134.6001)"><path d="m 0,0 c 1.953,-1.953 2.932,-4.376 2.932,-7.268 0,-2.748 -0.979,-5.098 -2.932,-7.051 -1.949,-2.023 -4.337,-3.035 -7.157,-3.035 -2.822,0 -5.246,1.012 -7.266,3.035 -1.954,1.953 -2.931,4.303 -2.931,7.051 0,2.892 0.977,5.315 2.931,7.268 2.02,2.027 4.444,3.04 7.266,3.04 C -4.337,3.04 -1.949,2.027 0,0" style="fill:#d83539;fill-opacity:1;fill-rule:evenodd;stroke:none" id="path94"/></g><g id="g96" transform="translate(432.3408,134.6001)"><path d="m 0,0 c 1.955,-1.953 2.936,-4.376 2.936,-7.268 0,-2.748 -0.981,-5.098 -2.936,-7.051 -1.95,-2.023 -4.338,-3.035 -7.154,-3.035 -2.825,0 -5.21,1.012 -7.165,3.035 -2.023,1.953 -2.998,4.303 -2.926,7.051 -0.072,2.892 0.903,5.315 2.926,7.268 1.955,2.027 4.34,3.04 7.165,3.04 C -4.338,3.04 -1.95,2.027 0,0" style="fill:#d83539;fill-opacity:1;fill-rule:evenodd;stroke:none" id="path98"/></g><g id="g100" transform="translate(74.0049,123.1826)"><path d="m 0,0 c -1.992,-1.992 -4.42,-2.983 -7.29,-2.983 -2.87,0 -5.34,0.991 -7.402,2.983 -1.982,2.061 -2.979,4.526 -2.979,7.395 0,2.871 0.997,5.304 2.979,7.291 2.062,2.059 4.532,3.094 7.402,3.094 2.87,0 5.298,-1.035 7.29,-3.094 C 2.062,12.699 3.092,10.266 3.092,7.395 3.092,4.526 2.062,2.061 0,0 m -2.303,-20.186 c -1.505,0 -2.73,1.217 -2.73,2.724 0,1.507 1.225,2.725 2.73,2.725 1.505,0 2.727,-1.218 2.727,-2.725 0,-1.507 -1.222,-2.724 -2.727,-2.724 m -8.261,5.543 c -2.348,0 -4.25,1.907 -4.25,4.251 0,2.348 1.902,4.253 4.25,4.253 2.349,0 4.252,-1.905 4.252,-4.253 0,-2.344 -1.903,-4.251 -4.252,-4.251 M 36.729,-2.7 c 0,0.365 -0.177,0.717 -0.471,1.01 C 22.348,11.27 9.079,25.232 -3.438,40.176 -3.583,40.472 -4.7,41.913 -7.076,44.491 -9.449,41.913 -10.362,40.48 -10.514,40.184 -23.027,25.238 -36.19,11.29 -50.105,-1.666 c -0.295,-0.292 -0.417,-0.626 -0.417,-0.995 -0.074,-0.296 -0.06,-0.59 0.013,-0.883 0,-0.075 0.043,-0.145 0.115,-0.22 0.075,-0.298 0.298,-0.499 0.669,-0.791 0.292,-0.146 0.629,-0.12 0.994,-0.12 l 10.822,0 c 0.073,0 0.146,-1.314 0.219,-1.975 1.916,-15.904 3.83,-31.857 5.742,-47.755 0,-0.441 0.189,-1.68 0.553,-2.05 0.299,-0.292 0.703,-1.274 1.219,-1.274 l 13.782,0 0,27.068 c 0,1.406 -1.376,0.963 -1.376,0.963 -1.966,0 -3.709,1.012 -3.709,2.975 0,1.971 1.553,2.56 3.519,2.56 l 22.545,0 c 1.966,0 3.276,-0.589 3.276,-2.56 0,-1.963 -2.003,-2.63 -3.968,-2.63 0,0 -1.88,0.081 -1.88,-1.308 l 0,-27.068 14.42,0 c 0.516,0 0.923,1.022 1.219,1.315 0.366,0.367 0.55,1.356 0.55,1.8 1.915,15.899 3.829,31.916 5.743,47.818 0.072,0.663 0.149,2.121 0.222,2.121 l 10.821,0 c 0.366,0 0.697,-0.026 0.99,0.123 0.37,0.29 0.589,0.411 0.662,0.705 0.071,0.076 0.1,0.187 0.1,0.262 0.074,0.296 0.063,0.587 -0.011,0.885" style="fill:#38729a;fill-opacity:1;fill-rule:nonzero;stroke:none" id="path102"/></g><g id="g104" transform="translate(169.6885,224.2627)"><path d="m 0,0 c -27.778,0 -49.961,-22.521 -50.297,-50.293 -0.229,-19.063 11.946,-30.085 12.466,-33.126 2.119,-12.295 -13.611,-12.689 -13.611,-12.689 0,0 10.334,-6.66 23.787,-0.637 5.359,2.397 14.564,-3.614 27.655,-3.843 27.772,-0.491 50.294,22.517 50.294,50.295 C 50.294,-22.518 27.776,0 0,0" style="fill:#d83539;fill-opacity:1;fill-rule:nonzero;stroke:none" id="path106"/></g><g id="g108" transform="translate(133.9521,156.8804)"><path d="m 0,0 0,32.957 4.204,0 0,-28.753 10.15,0 L 14.354,0 0,0 z" style="fill:#ffffff;fill-opacity:1;fill-rule:nonzero;stroke:none" id="path110"/></g><g id="g112" transform="translate(160.1499,178.3442)"><path d="m 0,0 -1.877,-8.094 3.755,0 L 0,0 z m -4.964,-21.509 -4.337,0 7.602,32.957 3.354,0 7.691,-32.957 -4.383,0 -2.102,9.212 -5.723,0 -2.102,-9.212 z" style="fill:#ffffff;fill-opacity:1;fill-rule:nonzero;stroke:none" id="path114"/></g><g id="g116" transform="translate(178.6973,161.0391)"><path d="M 0,0 C 0.537,0 1.042,0.045 1.52,0.134 1.997,0.224 2.407,0.439 2.749,0.782 3.092,1.124 3.36,1.632 3.555,2.303 3.748,2.974 3.846,3.89 3.846,5.053 3.846,6.245 3.74,7.184 3.532,7.87 3.323,8.556 3.047,9.07 2.705,9.413 2.362,9.754 1.959,9.972 1.498,10.062 1.035,10.15 0.537,10.196 0,10.196 l -2.147,0 L -2.147,0 0,0 z m -2.147,14.398 2.147,0 c 0.953,0 1.639,0.113 2.056,0.336 0.418,0.224 0.701,0.439 0.85,0.649 0.626,0.744 0.94,2.116 0.94,4.114 0,1.162 -0.098,2.078 -0.291,2.749 C 3.36,22.917 3.092,23.424 2.749,23.767 2.407,24.109 1.997,24.326 1.52,24.415 1.042,24.504 0.537,24.549 0,24.549 l -2.147,0 0,-10.151 z M 5.812,12.296 C 5.992,12.117 6.11,11.968 6.17,11.85 7.452,10.299 8.093,8.034 8.093,5.053 8.093,2.041 7.452,-0.209 6.17,-1.7 4.829,-3.369 2.772,-4.204 0,-4.204 l -2.147,0 -4.203,0 0,4.204 0,28.753 6.35,0 c 2.801,0 4.858,-0.836 6.17,-2.505 1.282,-1.491 1.923,-3.74 1.923,-6.751 0,-2.982 -0.641,-5.247 -1.923,-6.798 -0.06,-0.09 -0.178,-0.223 -0.358,-0.403" style="fill:#ffffff;fill-opacity:1;fill-rule:nonzero;stroke:none" id="path118"/></g><g id="g120" transform="translate(198.0088,156.8804)"><path d="M 0,0 C -2.623,0 -4.605,0.85 -5.947,2.549 -7.229,4.129 -7.87,6.394 -7.87,9.345 l 0,2.103 4.204,0 0,-2.103 c 0,-1.937 0.342,-3.324 1.028,-4.158 C -2.489,4.978 -2.221,4.762 -1.833,4.539 -1.446,4.314 -0.834,4.204 0,4.204 c 0.805,0 1.446,0.171 1.923,0.514 0.477,0.342 0.842,0.76 1.096,1.251 0.252,0.492 0.417,1.029 0.492,1.611 0.073,0.58 0.112,1.095 0.112,1.543 0,0.774 -0.12,1.43 -0.358,1.966 -0.24,0.537 -0.552,0.991 -0.939,1.364 -0.389,0.373 -0.821,0.686 -1.297,0.939 -0.478,0.254 -0.954,0.484 -1.431,0.694 l -0.805,0.357 c -0.477,0.208 -1.081,0.499 -1.812,0.872 -0.73,0.373 -1.452,0.901 -2.168,1.587 -1.788,1.729 -2.683,3.936 -2.683,6.619 0,1.401 0.186,2.683 0.559,3.845 0.373,1.163 0.91,2.154 1.61,2.974 0.7,0.819 1.535,1.46 2.504,1.923 0.968,0.462 2.034,0.694 3.197,0.694 1.61,0 2.885,-0.285 3.823,-0.851 0.94,-0.567 1.648,-1.148 2.125,-1.743 1.281,-1.641 1.923,-3.921 1.923,-6.842 l 0,-2.101 -4.248,0 0,2.101 c 0,1.281 -0.128,2.28 -0.38,2.996 -0.254,0.716 -0.575,1.23 -0.962,1.542 -0.388,0.314 -0.791,0.5 -1.207,0.56 -0.419,0.059 -0.777,0.089 -1.074,0.089 -0.865,0 -1.535,-0.208 -2.012,-0.626 -0.477,-0.417 -0.843,-0.917 -1.095,-1.499 -0.254,-0.58 -0.411,-1.162 -0.47,-1.743 -0.06,-0.582 -0.089,-1.022 -0.089,-1.319 0,-0.776 0.118,-1.438 0.357,-1.991 0.239,-0.551 0.552,-1.028 0.939,-1.43 0.388,-0.402 0.827,-0.746 1.32,-1.029 0.491,-0.283 1.006,-0.529 1.542,-0.737 L 1.208,18.021 C 1.625,17.841 2.198,17.58 2.93,17.238 3.66,16.895 4.383,16.381 5.098,15.695 6.946,13.996 7.871,11.805 7.871,9.123 7.871,6.588 7.245,4.486 5.992,2.817 4.531,0.938 2.534,0 0,0" style="fill:#ffffff;fill-opacity:1;fill-rule:nonzero;stroke:none" id="path122"/></g></g></g></g></svg>